<svg width="29.320007" height="29.320007" viewBox="0 0 29.32 29.32" fill="none" xmlns="http://www.w3.org/2000/svg"
>
    <desc>
        Created with Pixso.
    </desc>
    <defs/>
    <path id="path"
          d="M15.64 13.66L15.64 6.65C15.64 6.37 15.55 6.14 15.35 5.95C15.17 5.76 14.93 5.66 14.65 5.66C14.37 5.66 14.14 5.76 13.95 5.95C13.76 6.14 13.66 6.37 13.66 6.65L13.66 13.66L6.65 13.66C6.37 13.66 6.14 13.76 5.95 13.95C5.76 14.14 5.66 14.37 5.66 14.65C5.66 14.93 5.76 15.17 5.95 15.35C6.14 15.55 6.37 15.64 6.65 15.64L13.66 15.64L13.66 22.65C13.66 22.93 13.76 23.17 13.95 23.35C14.14 23.55 14.37 23.64 14.65 23.64C14.93 23.64 15.17 23.55 15.35 23.35C15.55 23.17 15.64 22.93 15.64 22.65L15.64 15.64L22.65 15.64C22.93 15.64 23.17 15.55 23.35 15.35C23.55 15.17 23.64 14.93 23.64 14.65C23.64 14.37 23.55 14.14 23.35 13.95C23.17 13.76 22.93 13.66 22.65 13.66L15.64 13.66Z"
          fill="#FFFFFF" fill-opacity="1.000000" fill-rule="nonzero"/>
    <path id="path"
          d="M14.66 1.98C16.94 1.98 19.05 2.56 21 3.7C22.94 4.84 24.48 6.38 25.62 8.32C26.76 10.26 27.33 12.38 27.33 14.66C27.33 16.94 26.76 19.05 25.62 21C24.48 22.94 22.94 24.48 21 25.62C19.05 26.76 16.94 27.33 14.66 27.33C12.38 27.33 10.26 26.76 8.32 25.62C6.38 24.48 4.84 22.94 3.7 21C2.56 19.05 1.98 16.94 1.98 14.66C1.98 12.38 2.56 10.26 3.7 8.32C4.84 6.38 6.38 4.84 8.32 3.7C10.26 2.56 12.38 1.98 14.66 1.98ZM14.66 0C11.99 0 9.54 0.65 7.29 1.97C5.06 3.28 3.28 5.06 1.97 7.29C0.65 9.54 0 11.99 0 14.66C0 17.3 0.65 19.75 1.97 22C3.28 24.25 5.06 26.03 7.32 27.35C9.56 28.66 12.01 29.32 14.66 29.32C17.3 29.32 19.75 28.66 22 27.35C24.25 26.03 26.03 24.25 27.35 22C28.66 19.75 29.32 17.3 29.32 14.66C29.32 11.99 28.66 9.54 27.35 7.29C26.03 5.06 24.26 3.28 22.02 1.97C19.78 0.65 17.32 0 14.66 0Z"
          fill="#FFFFFF" fill-opacity="1.000000" fill-rule="nonzero"/>
</svg>
