<svg width="14.660004" height="13.340027" viewBox="0 0 14.66 13.34" fill="none" xmlns="http://www.w3.org/2000/svg" xmlns:xlink="http://www.w3.org/1999/xlink">
	<desc>
			Created with Pixso.
	</desc>
	<defs/>
	<path id="path" d="M1.33 0C0.97 0 0.66 0.12 0.4 0.38C0.13 0.64 0 0.95 0 1.33L0 9.33C0 9.68 0.13 10 0.4 10.26C0.66 10.52 0.97 10.66 1.33 10.66L5.33 10.66C5.7 10.66 6.02 10.52 6.28 10.26C6.53 10 6.66 9.68 6.66 9.33L6.66 1.33C6.66 0.95 6.53 0.64 6.28 0.38C6.02 0.12 5.7 0 5.33 0L1.33 0ZM4 12.02C4 12.39 4.13 12.7 4.4 12.96C4.66 13.21 4.96 13.34 5.33 13.34L13.33 13.34C13.7 13.34 14.02 13.21 14.28 12.96C14.53 12.7 14.66 12.39 14.66 12.02L14.66 8.02C14.66 7.64 14.53 7.33 14.28 7.07C14.02 6.81 13.7 6.69 13.33 6.69L7.54 6.69L7.54 9.33C7.54 9.72 7.44 10.09 7.24 10.43C7.04 10.77 6.78 11.04 6.44 11.24C6.09 11.44 5.72 11.54 5.33 11.54L4 11.54L4 12.02Z" fill="#FFFFFF" fill-opacity="1.000000" fill-rule="nonzero"/>
</svg>
