<svg width="29.349976" height="24.351318" viewBox="0 0 29.35 24.3513" fill="none" xmlns="http://www.w3.org/2000/svg"
>
    <desc>
        Created with Pixso.
    </desc>
    <defs/>
    <path id="path"
          d="M0 23.32C0 23.55 0.07 23.76 0.2 23.94C0.35 24.12 0.53 24.25 0.77 24.31C1 24.37 1.23 24.36 1.46 24.26C1.67 24.16 1.85 24.01 1.98 23.8C2.75 22.22 3.77 20.85 5.03 19.7C6.31 18.55 7.75 17.67 9.35 17.05C10.97 16.43 12.65 16.12 14.4 16.12L14.63 16.12L14.63 20.86C14.63 21.32 14.75 21.74 14.99 22.12C15.23 22.49 15.57 22.78 16 23C16.42 23.17 16.86 23.22 17.29 23.14C17.73 23.06 18.13 22.88 18.5 22.58L28.45 13.66C28.73 13.38 28.95 13.06 29.11 12.71C29.27 12.35 29.35 11.99 29.35 11.61C29.35 11.22 29.27 10.85 29.11 10.5C28.95 10.15 28.73 9.85 28.45 9.59L18.53 0.6C18.19 0.28 17.79 0.08 17.35 0.02C16.89 -0.04 16.45 0.02 16.03 0.22C15.6 0.4 15.26 0.69 15.01 1.08C14.75 1.46 14.63 1.89 14.63 2.36L14.63 7.51C11.87 7.93 9.4 8.89 7.2 10.38C5 11.86 3.27 13.73 2 15.99C0.73 18.25 0.06 20.69 0 23.32Z"
          fill="#FFFFFF" fill-opacity="1.000000" fill-rule="nonzero"/>
</svg>
