<svg width="29.320007" height="26.039978" viewBox="0 0 29.32 26.04" fill="none" xmlns="http://www.w3.org/2000/svg"
>
    <desc>
        Created with Pixso.
    </desc>
    <defs/>
    <path id="path"
          d="M20.36 0C19.31 0 18.3 0.18 17.33 0.55C16.36 0.93 15.47 1.46 14.66 2.14C13.84 1.46 12.95 0.93 11.99 0.55C11.01 0.18 10 0 8.96 0C7.32 0 5.81 0.41 4.45 1.23C3.08 2.07 2 3.19 1.2 4.59C0.39 6.01 0 7.53 0 9.17C0 10.63 0.5 12.27 1.52 14.09C2.53 15.91 3.85 17.71 5.47 19.48C7.15 21.34 8.87 22.9 10.63 24.16C12.37 25.41 13.71 26.04 14.63 26.04C15.67 26.04 17.04 25.45 18.74 24.27C20.43 23.08 22.1 21.59 23.75 19.79C25.39 17.98 26.72 16.13 27.76 14.25C28.8 12.36 29.32 10.67 29.32 9.17C29.32 7.53 28.92 6.01 28.12 4.59C27.32 3.19 26.23 2.07 24.87 1.23C23.5 0.41 22 0 20.36 0Z"
          fill="#FFFFFF" fill-opacity="1.000000" fill-rule="nonzero"/>
</svg>
