<svg width="27.320007" height="25.773315" viewBox="0 0 27.32 25.7733" fill="none" xmlns="http://www.w3.org/2000/svg"
>
    <desc>
        Created with Pixso.
    </desc>
    <defs/>
    <path id="path"
          d="M27.32 12.07C27.32 9.89 26.7 7.88 25.48 6.03C24.25 4.19 22.59 2.72 20.51 1.64C18.41 0.54 16.13 0 13.66 0C11.18 0 8.9 0.54 6.81 1.64C4.72 2.72 3.06 4.19 1.84 6.03C0.61 7.88 0 9.89 0 12.07C0 13.79 0.38 15.42 1.15 16.95C1.94 18.5 3.02 19.83 4.4 20.96C4.81 21.36 4.93 21.91 4.76 22.61C4.59 23.3 4.28 24.07 3.84 24.93L3.73 25.16C3.7 25.26 3.69 25.37 3.71 25.48C3.75 25.58 3.82 25.66 3.91 25.72C4.01 25.77 4.11 25.78 4.21 25.76C5.17 25.61 6 25.41 6.67 25.16C7.36 24.9 8.02 24.61 8.64 24.29C9.08 24.05 9.42 23.89 9.65 23.81C9.89 23.72 10.11 23.71 10.33 23.78C11.44 24.01 12.55 24.13 13.66 24.13C16.13 24.13 18.41 23.58 20.51 22.5C22.59 21.41 24.25 19.94 25.48 18.1C26.7 16.25 27.32 14.24 27.32 12.07ZM5.15 12.39C5.15 11.89 5.32 11.48 5.65 11.16C6 10.82 6.4 10.66 6.88 10.66C7.36 10.66 7.78 10.83 8.12 11.17C8.46 11.51 8.64 11.91 8.64 12.39C8.64 12.85 8.46 13.26 8.12 13.6C7.78 13.94 7.36 14.12 6.88 14.12C6.4 14.12 6 13.94 5.65 13.6C5.32 13.26 5.15 12.85 5.15 12.39ZM11.93 12.39C11.93 11.89 12.1 11.48 12.44 11.16C12.78 10.82 13.19 10.66 13.66 10.66C14.15 10.66 14.56 10.82 14.89 11.16C15.22 11.48 15.39 11.89 15.39 12.39C15.39 12.85 15.22 13.26 14.89 13.6C14.56 13.94 14.15 14.12 13.66 14.12C13.19 14.12 12.78 13.94 12.44 13.6C12.1 13.26 11.93 12.85 11.93 12.39ZM18.71 12.39C18.71 11.89 18.89 11.48 19.23 11.16C19.57 10.82 19.97 10.66 20.44 10.66C20.93 10.66 21.34 10.82 21.68 11.16C22 11.48 22.17 11.89 22.17 12.39C22.17 12.85 22 13.26 21.68 13.6C21.34 13.94 20.93 14.12 20.44 14.12C19.97 14.12 19.57 13.94 19.23 13.6C18.89 13.26 18.71 12.85 18.71 12.39Z"
          fill="#FFFFFF" fill-opacity="1.000000" fill-rule="nonzero"/>
</svg>
