<svg width="24.000000" height="24.000000" viewBox="0 0 24 24" fill="none" xmlns="http://www.w3.org/2000/svg" xmlns:xlink="http://www.w3.org/1999/xlink">
	<desc>
			Created with Pixso.
	</desc>
	<defs>
		<clipPath id="clip76_10046">
			<rect id="full_screen" width="24.000000" height="24.000000" fill="white" fill-opacity="0"/>
		</clipPath>
	</defs>
	<g clip-path="url(#clip76_10046)">
		<g opacity="0.000000">
			<rect id="rect" width="24.000000" height="24.000000" fill="#000000" fill-opacity="1.000000"/>
		</g>
		<path id="path" d="M4.89 13.01C5.1 13.01 5.27 12.93 5.41 12.78C5.56 12.62 5.64 12.44 5.64 12.24L5.64 6.14C5.64 5.96 5.69 5.82 5.81 5.69C5.93 5.58 6.08 5.52 6.23 5.52L12.1 5.52C12.3 5.52 12.48 5.44 12.62 5.3C12.76 5.15 12.83 4.98 12.83 4.78C12.83 4.56 12.76 4.39 12.62 4.25C12.48 4.1 12.3 4.03 12.1 4.03L6.23 4.03C5.66 4.03 5.17 4.23 4.75 4.64C4.35 5.05 4.14 5.55 4.14 6.14L4.14 12.24C4.14 12.44 4.22 12.62 4.37 12.78C4.5 12.93 4.68 13.01 4.89 13.01ZM17.73 19.96C18.12 19.96 18.46 19.87 18.79 19.67C19.1 19.48 19.36 19.23 19.56 18.9C19.75 18.59 19.85 18.24 19.85 17.86L19.85 11.76C19.85 11.53 19.77 11.35 19.62 11.21C19.48 11.06 19.3 10.99 19.08 10.99C18.87 10.99 18.69 11.06 18.54 11.22C18.4 11.37 18.33 11.55 18.33 11.76L18.33 17.86C18.33 18.02 18.28 18.15 18.16 18.28C18.05 18.4 17.91 18.45 17.73 18.45L11.87 18.45C11.67 18.45 11.49 18.53 11.35 18.67C11.21 18.83 11.14 19 11.14 19.2C11.14 19.4 11.21 19.58 11.35 19.74C11.49 19.89 11.67 19.96 11.87 19.96L17.73 19.96Z" fill="#FFFFFF" fill-opacity="1.000000" fill-rule="nonzero"/>
	</g>
</svg>
