<?xml version="1.0" standalone="no"?>
<svg xmlns="http://www.w3.org/2000/svg" width="12" height="12"><rect width="12" height="12" opacity="0"></rect><g><path d="M8.26 1.75Q7.94 1.75 7.72 1.97Q7.5 2.18 7.5 2.5L7.5 9.5Q7.5 9.82 7.72 10.03Q7.94 10.25 8.26 10.25Q8.57 10.25 8.78 10.03Q9 9.8 9 9.5L9 2.5Q9 2.18 8.78 1.97Q8.57 1.75 8.26 1.75ZM3.76 1.75Q3.44 1.75 3.22 1.97Q3 2.18 3 2.5L3 9.5Q3 9.82 3.22 10.03Q3.44 10.25 3.76 10.25Q4.07 10.25 4.28 10.03Q4.5 9.8 4.5 9.5L4.5 2.5Q4.5 2.18 4.28 1.97Q4.07 1.75 3.76 1.75Z" fill="#FFFFFF" fill-opacity="1.000000"></path></g></svg>