<svg width="24.000000" height="24.000000" viewBox="0 0 24 24" fill="none" xmlns="http://www.w3.org/2000/svg" xmlns:xlink="http://www.w3.org/1999/xlink">
	<desc>
			Created with Pixso.
	</desc>
	<defs>
		<clipPath id="clip76_10040">
			<rect id="speaker_wave_2" width="24.000000" height="24.000000" fill="white" fill-opacity="0"/>
		</clipPath>
	</defs>
	<g clip-path="url(#clip76_10040)">
		<g opacity="0.000000">
			<rect id="rect" width="24.000000" height="24.000000" fill="#000000" fill-opacity="1.000000"/>
		</g>
		<path id="path" d="M10.63 18.4C10.98 18.66 11.35 18.77 11.75 18.73C12.14 18.68 12.47 18.52 12.74 18.24C13.01 17.95 13.14 17.6 13.14 17.2L13.14 6.79C13.14 6.37 13.01 6.02 12.73 5.73C12.45 5.44 12.11 5.28 11.71 5.26C11.31 5.22 10.95 5.33 10.63 5.58L7.2 8.39L4.58 8.39C4.04 8.39 3.58 8.58 3.2 8.95C2.82 9.33 2.64 9.8 2.64 10.33L2.64 13.62C2.64 14.17 2.82 14.63 3.2 15.02C3.58 15.4 4.04 15.59 4.58 15.59L7.2 15.59L10.63 18.4ZM7.72 9.88L11.64 6.79L11.57 17.23L7.72 14.1L4.58 14.1C4.45 14.1 4.34 14.06 4.26 13.97C4.17 13.86 4.13 13.75 4.13 13.62L4.13 10.33C4.13 10.21 4.17 10.1 4.27 10.02C4.37 9.93 4.47 9.88 4.58 9.88L7.72 9.88Z" fill="#FFFFFF" fill-opacity="1.000000" fill-rule="nonzero"/>
		<path id="path" d="M16.19 9.07C15.97 8.85 15.73 8.78 15.46 8.86C15.2 8.95 15.02 9.12 14.93 9.37C14.85 9.63 14.91 9.88 15.13 10.12C15.63 10.66 15.88 11.28 15.88 11.98C15.88 12.32 15.82 12.65 15.69 12.98C15.56 13.3 15.37 13.59 15.11 13.85C14.89 14.07 14.82 14.31 14.91 14.58C15 14.84 15.17 15.02 15.43 15.11C15.7 15.19 15.95 15.12 16.17 14.89C16.55 14.5 16.85 14.05 17.05 13.55C17.27 13.04 17.37 12.52 17.37 11.98C17.37 11.43 17.27 10.9 17.05 10.39C16.85 9.89 16.56 9.45 16.19 9.07Z" fill="#FFFFFF" fill-opacity="1.000000" fill-rule="nonzero"/>
		<path id="path" d="M19.03 6.35C18.82 6.13 18.58 6.06 18.32 6.15C18.06 6.24 17.87 6.41 17.78 6.67C17.68 6.94 17.75 7.18 17.98 7.38C18.56 7.98 19.02 8.67 19.35 9.46C19.68 10.26 19.85 11.08 19.85 11.92C19.85 12.79 19.68 13.61 19.37 14.39C19.05 15.18 18.59 15.87 18 16.45C17.79 16.67 17.73 16.91 17.82 17.17C17.9 17.45 18.08 17.63 18.34 17.71C18.59 17.81 18.83 17.74 19.06 17.52C19.79 16.78 20.35 15.93 20.76 14.98C21.16 14.02 21.35 13.01 21.35 11.95C21.35 10.87 21.16 9.85 20.76 8.89C20.35 7.93 19.78 7.09 19.03 6.35Z" fill="#FFFFFF" fill-opacity="1.000000" fill-rule="nonzero"/>
	</g>
</svg>
