<svg viewBox="0 0 40 40" xmlns="http://www.w3.org/2000/svg" xmlns:xlink="http://www.w3.org/1999/xlink" width="40" height="40" fill="none" customFrame="url(#clipPath_0)">
	<defs>
		<clipPath id="clipPath_0">
			<rect width="40" height="40" x="0" y="0" rx="19.5" fill="rgb(255,255,255)" />
		</clipPath>
		<clipPath id="clipPath_1">
			<rect width="24" height="24" x="8" y="8" fill="rgb(255,255,255)" />
		</clipPath>
	</defs>
	<rect id="3.Icon Button" width="40" height="40" x="0" y="0" rx="19.5" fill="rgb(0,0,0)" fill-opacity="0.0470588244" />
	<g id="chevron_backward" clip-path="url(#clipPath_1)" customFrame="url(#clipPath_1)">
		<rect id="chevron_backward" width="24" height="24" x="8" y="8" />
		<rect id="rect" width="24" height="24" x="8" y="8" opacity="0" />
		<g id="g">
			<path id="path" d="M16.09 20L23.05 13.04C23.19 12.88 23.26 12.7 23.26 12.5C23.26 12.3 23.19 12.12 23.05 11.96C22.9033 11.8133 22.7266 11.74 22.52 11.74C22.3133 11.74 22.1366 11.8133 21.99 11.96L15.01 18.94C14.7233 19.2333 14.58 19.5867 14.58 20C14.58 20.4133 14.7233 20.7667 15.01 21.06L21.97 27.99C22.0966 28.1367 22.2666 28.21 22.48 28.21C22.7 28.21 22.88 28.1367 23.02 27.99C23.1666 27.85 23.24 27.6733 23.24 27.46C23.24 27.2533 23.1666 27.08 23.02 26.94L16.09 20Z" fill="rgb(0,0,0)" fill-opacity="0.898039222" fill-rule="nonzero" />
		</g>
	</g>
</svg>
